<?xml version="1.0" encoding="UTF-8"?><svg id="Layer_1" xmlns="http://www.w3.org/2000/svg" xmlns:xlink="http://www.w3.org/1999/xlink" viewBox="0 0 495.88 228.46"><defs><style>.cls-1{fill:url(#linear-gradient);}.cls-1,.cls-2,.cls-3,.cls-4,.cls-5,.cls-6,.cls-7{stroke-width:0px;}.cls-2{fill:url(#linear-gradient-4);}.cls-3{fill:url(#linear-gradient-2);}.cls-4{fill:url(#linear-gradient-3);}.cls-5{fill:#263e80;}.cls-6{fill:#646b79;}.cls-7{fill:#202d5e;}</style><linearGradient id="linear-gradient" x1="373.38" y1="40.61" x2="457.82" y2="99.73" gradientUnits="userSpaceOnUse"><stop offset="0" stop-color="#d8dae1"/><stop offset=".16" stop-color="#abb3c9"/><stop offset=".36" stop-color="#7c89af"/><stop offset=".55" stop-color="#56689a"/><stop offset=".73" stop-color="#3b518c"/><stop offset=".88" stop-color="#2a4383"/><stop offset="1" stop-color="#253e80"/></linearGradient><linearGradient id="linear-gradient-2" x1="414.64" y1="47.25" x2="490.86" y2="100.61" gradientUnits="userSpaceOnUse"><stop offset="0" stop-color="#d8dae1"/><stop offset=".22" stop-color="#a4adc5"/><stop offset=".48" stop-color="#6e7da7"/><stop offset=".71" stop-color="#465b92"/><stop offset=".89" stop-color="#2d4584"/><stop offset="1" stop-color="#253e80"/></linearGradient><linearGradient id="linear-gradient-3" x1="346.34" y1="60.85" x2="375.46" y2="81.24" gradientUnits="userSpaceOnUse"><stop offset="0" stop-color="#8d92a2"/><stop offset=".08" stop-color="#79829b"/><stop offset=".24" stop-color="#5a6991"/><stop offset=".4" stop-color="#435689"/><stop offset=".58" stop-color="#324884"/><stop offset=".76" stop-color="#284081"/><stop offset="1" stop-color="#253e80"/></linearGradient><linearGradient id="linear-gradient-4" x1="353.87" y1="48.85" x2="413.38" y2="90.53" gradientUnits="userSpaceOnUse"><stop offset="0" stop-color="#d8dae1"/><stop offset=".09" stop-color="#babfd0"/><stop offset=".24" stop-color="#8c98b8"/><stop offset=".4" stop-color="#6777a4"/><stop offset=".55" stop-color="#4a5e94"/><stop offset=".71" stop-color="#354c89"/><stop offset=".86" stop-color="#294182"/><stop offset="1" stop-color="#253e80"/></linearGradient></defs><path class="cls-7" d="m398.19,136.9l30.04,5.1c25.56-15.7,42.7-44.11,42.7-76.3,0-24.11-9.82-46.56-25.36-62.62,0,0,30.06,62.08-47.38,133.81Z"/><path class="cls-7" d="m369.59,115.68l15.98,14.56c31.88-14.95,54.01-47.41,54.01-84.95,0-16.43-4.03-31.79-11.46-45.21l-29.94,5.11s30.29,59.97-28.59,110.49"/><path class="cls-1" d="m398.18,5.19c12.35,18.94,19.55,41.55,19.55,65.85s-7.2,46.91-19.55,65.85c8.23,3.34,17.23,5.19,26.66,5.19,1.14,0,2.27-.03,3.39-.09,11.43-21.1,17.92-45.27,17.92-70.96S439.66,21.19,428.23.09c-1.12-.05-2.25-.09-3.39-.09-9.43,0-18.42,1.85-26.66,5.19Z"/><path class="cls-3" d="m445.57,3.08c9.48,20.7,14.79,43.7,14.79,67.96s-5.28,47.26-14.76,67.95c29.1-8.88,50.28-35.94,50.28-67.95s-21.19-59.09-50.31-67.96Z"/><path class="cls-7" d="m360.9,102.03c19.21-12.72,31.89-34.52,31.89-59.29,0-11.33-2.5-21.4-7.22-30.9l-15.98,14.56c2.76,7.59,4.27,15.78,4.27,24.32,0,14.92-4.6,28.77-12.46,40.21l-.5,11.11Z"/><path class="cls-4" d="m360.9,102.03c4.55-9.37,7.1-19.88,7.1-30.99s-2.56-21.63-7.1-30.99c-4.55,9.37-7.1,19.88-7.1,30.99s2.56,21.63,7.1,30.99Z"/><path class="cls-2" d="m369.59,26.4c8,12.99,12.62,28.27,12.62,44.64s-4.62,31.66-12.62,44.64c4.55,5.62,9.94,10.54,15.98,14.56,11.34-16.93,17.95-37.29,17.95-59.2s-6.62-42.27-17.95-59.2c-6.04,4.02-11.43,8.93-15.98,14.56Z"/><path class="cls-5" d="m37.73,69.06c17.8,0,27,9.2,27,9.2l-6.55,9.82s-7.77-6.96-19.33-6.96c-16.26,0-24.96,11.25-24.96,24.96,0,15.75,10.74,25.98,24.35,25.98,10.94,0,18.2-7.57,18.2-7.57v-8.49h-11.15v-11.35h23.02v38.25h-11.25v-3.48c0-1.53.1-3.07.1-3.07h-.21s-7.57,7.78-21.07,7.78C16.76,144.14.29,129.3.29,106.49c0-21.07,15.86-37.44,37.44-37.44Z"/><path class="cls-5" d="m80.18,70.28h12.89v54.42c0,5.73,1.94,7.16,5.32,7.16,1.02,0,1.94-.1,1.94-.1v11.35s-1.94.31-4.09.31c-7.16,0-16.06-1.84-16.06-16.78v-56.36Z"/><path class="cls-5" d="m134.71,89.52c15.96,0,28.74,11.35,28.74,27.31s-12.79,27.31-28.64,27.31-28.74-11.25-28.74-27.31,12.79-27.31,28.64-27.31Zm.11,43.57c8.39,0,15.45-6.55,15.45-16.26s-7.06-16.26-15.45-16.26-15.55,6.65-15.55,16.26,7.06,16.26,15.55,16.26Z"/><path class="cls-5" d="m173.89,70.28h12.99v22.4c0,2.56-.21,4.4-.21,4.4h.21s4.6-7.57,15.65-7.57c14.11,0,23.12,11.15,23.12,27.31s-10.13,27.31-23.94,27.31c-10.84,0-15.55-7.78-15.55-7.78h-.21s.21,1.53.21,3.58v2.97h-12.28v-72.62Zm25.57,62.91c7.16,0,13.09-5.83,13.09-16.16s-5.32-16.37-12.99-16.37c-6.75,0-13.09,4.91-13.09,16.47,0,8.08,4.3,16.06,12.99,16.06Z"/><path class="cls-5" d="m262.89,110.18h1.74v-.72c0-6.85-4.3-9.2-10.03-9.2-7.47,0-14.32,5.01-14.32,5.01l-4.91-9.31s8.08-6.44,20.46-6.44c13.7,0,21.68,7.57,21.68,20.76v32.63h-11.97v-4.3c0-2.05.21-3.68.21-3.68h-.21c.1,0-3.99,9.21-15.85,9.21-9.31,0-17.7-5.83-17.7-16.26,0-16.57,22.4-17.7,30.89-17.7Zm-9.92,23.83c6.85,0,11.76-7.36,11.76-13.71v-1.23h-2.25c-6.65,0-17.39.92-17.39,8.18,0,3.48,2.56,6.75,7.88,6.75Z"/><path class="cls-5" d="m290.31,70.28h12.89v54.42c0,5.73,1.94,7.16,5.32,7.16,1.02,0,1.95-.1,1.95-.1v11.35s-1.95.31-4.09.31c-7.16,0-16.06-1.84-16.06-16.78v-56.36Z"/><path class="cls-6" d="m2.63,202.63c-.42-1.07-1.01-1.37-2.09-1.37h-.54v-3.52h1.61c2.86,0,3.76.6,4.77,3.28l7.22,18.73c.54,1.49,1.01,3.52,1.01,3.52h.12s.48-2.03,1.01-3.52l7.22-18.73c1.02-2.69,1.91-3.28,4.71-3.28h1.55v3.52h-.54c-1.07,0-1.73.3-2.09,1.37l-9.78,25.12h-4.42l-9.78-25.12Z"/><path class="cls-6" d="m100.79,197.02c8.77,0,15.87,6.68,15.87,15.57s-7.1,15.87-15.81,15.87-15.87-6.8-15.87-15.87,7.1-15.57,15.81-15.57Zm.06,27.8c6.38,0,11.63-5.25,11.63-12.23s-5.25-11.87-11.63-11.87-11.69,5.07-11.69,11.87,5.25,12.23,11.69,12.23Z"/><path class="cls-6" d="m177.65,202.57c0-.84-.48-1.31-1.31-1.31h-2.51v-3.52h4.23c2.57,0,3.64,1.07,3.64,3.64v21.54c0,.9.48,1.31,1.31,1.31h2.51v3.52h-4.23c-2.57,0-3.64-1.07-3.64-3.64v-21.54Zm-.12-16.77h3.94v5.13h-3.94v-5.13Z"/><path class="cls-6" d="m258.45,197.02c3.4,0,10.68,1.43,10.68,6.39v2.68h-3.82v-1.73c0-2.51-4.36-3.7-6.86-3.7-6.44,0-11.64,4.83-11.64,12.11s5.43,11.99,11.75,11.99,9.67-4.24,9.67-4.24l1.91,3.04s-4.06,4.89-11.76,4.89c-8.95,0-15.75-6.39-15.75-15.69s6.86-15.75,15.81-15.75Z"/><path class="cls-6" d="m342.05,197.02c8.29,0,12.59,6.39,12.59,13.84,0,.72-.12,2.03-.12,2.03h-23.03c.12,7.58,5.43,11.93,11.64,11.93,5.49,0,9.01-3.7,9.01-3.7l1.97,3.04s-4.35,4.3-11.16,4.3c-8.89,0-15.69-6.44-15.69-15.69,0-9.84,6.74-15.75,14.8-15.75Zm8.41,12.65c-.24-6.2-4.06-9.25-8.47-9.25-4.95,0-9.31,3.22-10.32,9.25h18.8Z"/><path class="cls-6" d="m414.74,220.41s3.34,4.53,9.25,4.53c3.34,0,6.32-1.61,6.32-4.77,0-6.56-16.82-5.37-16.82-15.04,0-5.43,4.65-8.11,10.68-8.11,3.04,0,9.13,1.19,9.13,5.43v2.56h-3.82v-1.43c0-2.21-3.22-3.04-5.19-3.04-4.18,0-6.68,1.43-6.68,4.35,0,6.74,16.83,5.19,16.83,15.15,0,5.01-4.53,8.41-10.5,8.41-7.81,0-11.52-5.25-11.52-5.25l2.33-2.81Z"/></svg>